# xmcd
# Track frame offsets:
# 150
# 31549
# 48898
#
# Disc length: 901 seconds
# Revision: 0
# Processed by: cddbd v1.5PL3 Copyright (c) Steve Scherf et al.
# Submitted via: VisiTrax 2.9.9.202 - For more info visit www.synapsa.com
#
DISCID=14038303
DTITLE=Shania Twain - When You Kiss Me
DYEAR=2003
DGENRE=Country
TTITLE0=Metro Extended
TTITLE1=Metro Radio Edit
TTITLE2=Album Version
EXTD=Promo Disc
EXTT0=
EXTT1=
EXTT2=
PLAYORDER=
